<svg id="f5ade1a8-df1e-4641-815e-c68bf5458285" data-name="Layer 1" xmlns="http://www.w3.org/2000/svg" viewBox="0 0 111.75 47.03"><title>site_logo_main</title><path d="M10.59,40.63v2.29c0,4,1.4,6.06,4.31,6.06s4.24-2,4.24-6.84-1.06-6.71-5.26-10S7.45,26.83,7.45,20.93c0-5,1.5-9.79,7.57-9.75,5.63,0,7.31,3.7,7.31,9v1.8H18.54v-1.7c0-3.45-.69-5.71-3.6-5.71s-3.68,2.57-3.68,5.83c0,3.93.79,5.35,4.51,8.18C21.23,32.69,23,35,23,41.63c0,5.62-1.52,10.69-8.11,10.69-6.25,0-8.09-4.12-8.09-9.4V40.63Z" transform="translate(-6.77 -11.18)"/><path d="M27.48,11.72h7c5.86,0,8.6,3,8.6,9.32v2.45c0,5.89-1.67,10.35-8.88,10.35H31.3v18H27.48ZM31.3,30.59h2.54c4.71,0,5.37-2.92,5.37-7.14v-2.2c0-3.32-.75-6.26-5-6.26H31.3Z" transform="translate(-6.77 -11.18)"/><path d="M49.7,40.63v2.29c0,4,1.4,6.06,4.32,6.06s4.23-2,4.23-6.84-1-6.71-5.25-10-6.43-5.33-6.43-11.23c0-5,1.5-9.79,7.57-9.75,5.63,0,7.31,3.7,7.31,9v1.8h-3.8v-1.7c0-3.45-.69-5.71-3.59-5.71s-3.68,2.57-3.68,5.83c0,3.93.79,5.35,4.5,8.18,5.47,4.15,7.21,6.44,7.21,13.09,0,5.62-1.52,10.69-8.11,10.69-6.25,0-8.09-4.12-8.09-9.4V40.63Z" transform="translate(-6.77 -11.18)"/><path d="M73.68,26.67h1.39v8.91a3.08,3.08,0,0,1,3.24-2.08c2.49,0,3.53,2,3.53,5v7.71c0,3.23-.82,5.83-3.9,5.83a2.86,2.86,0,0,1-3-2.09,17.19,17.19,0,0,1-.08,1.87H73.65c0-.8,0-2.42,0-4.9Zm6.74,19.71V38.67c0-2.47-.71-3.83-2.43-3.83-2.67,0-3,2.77-3,5.7v5.07c0,3.49.82,5.07,2.86,5.07C79.57,50.68,80.42,49.32,80.42,46.38Z" transform="translate(-6.77 -11.18)"/><path d="M85,51.8V26.67h1.38V51.8Z" transform="translate(-6.77 -11.18)"/><path d="M97.61,38.45v8.19c0,4-1.77,5.45-4.13,5.45s-4-1.39-4-5.28V38.49c0-3,1.42-5,4.14-5S97.61,35.45,97.61,38.45Zm-6.74.07v8.33c0,2.5.89,4,2.64,4s2.68-1,2.68-4V38.52c0-2.18-.82-3.75-2.64-3.75S90.87,36.16,90.87,38.52Z" transform="translate(-6.77 -11.18)"/><path d="M108.3,52.09c0,3.3-.43,6.12-4.28,6.12-3.19,0-3.88-2.35-3.88-4.26v-.11h1.42V54c0,1.32.5,3,2.54,3,2.25,0,2.82-1.64,2.82-4.58V49.68a2.88,2.88,0,0,1-3.13,2.11c-2.19,0-3.61-1.43-3.61-5.37V38.73c0-3.93,1.85-5.23,4-5.23a2.77,2.77,0,0,1,2.92,1.84c0-.47.07-1.09.11-1.55h1.2c0,.87-.08,2.63-.08,5Zm-6.7-13.32v7.5c0,2.82.78,4.18,2.36,4.18,2.6,0,3-3,3-5.6V39.48c0-2.64-.29-4.64-2.72-4.64C102.28,34.84,101.6,36.4,101.6,38.77Z" transform="translate(-6.77 -11.18)"/><path d="M112.11,46.74v.76c0,2.42,1.1,3.32,2.54,3.32,1.78,0,2.46-1.14,2.46-3.28,0-2.35-.71-3.21-2.63-4.51-2.34-1.59-3.39-2.81-3.39-5.23,0-2.25.91-4.3,3.66-4.3,3,0,3.56,2.19,3.56,4.27v.93h-1.38v-.87c0-1.82-.47-3.07-2.25-3.07-1.53,0-2.17,1-2.17,2.89s.53,2.61,2.51,4,3.51,2.68,3.51,5.67-1.2,4.8-4,4.8c-3,0-3.85-2.14-3.85-4.52v-.83Z" transform="translate(-6.77 -11.18)"/></svg>